# xmcd CD database file
#
# Track frame offsets:
#	150
#	10832
#	24192
#	39836
#	54860
#	74521
#	97140
#	113499
#	124100
#	146369
#	160109
#	171424
#	187367
#
# Disc length: 2844 seconds
#
# Revision: 0
# Processed by: cddbd v1.5.1PL0 Copyright (c) Steve Scherf et al.
# Submitted via: CDex 1.51
#
DISCID=a80b1a0d
DTITLE=Roberto Aymes Band - Little Jazzcats
DYEAR=2002
DGENRE=Jazz
TTITLE0=Di por que
TTITLE1=The flinstones
TTITLE2=Muñequita linda
TTITLE3=O popero da Pildorita
TTITLE4=My one and only love
TTITLE5=Perdido
TTITLE6=Canción de los niños
TTITLE7=Naranja Dulce
TTITLE8=Sweet Georgia brown
TTITLE9=Air (on G string)
TTITLE10=Chabelo theme
TTITLE11=Lucy in the sky with diamonds
TTITLE12=Mario Bros
EXTD=YEAR: 2002
EXTT0=
EXTT1=
EXTT2=
EXTT3=
EXTT4=
EXTT5=
EXTT6=
EXTT7=
EXTT8=
EXTT9=
EXTT10=
EXTT11=
EXTT12=
PLAYORDER=
